<svg xmlns="http://www.w3.org/2000/svg" viewBox="0 0 128 128" fill="none" aria-label="home.theor.net">
  <path class="theor-mark__core" d="M 30.464844 0 L 46.464844 0 L 46.464844 -75.519531 L 71.679688 -75.519531 L 71.679688 -89.601562 L 5.121094 -89.601562 L 5.121094 -75.519531 L 30.464844 -75.519531 Z M 30.464844 0" transform="translate(3 104) scale(0.84)" />
  <path class="theor-mark__site" d="M 12.160156 0 L 27.519531 0 L 27.519531 -40.320312 C 27.519531 -50.433594 33.023438 -57.601562 40.703125 -57.601562 C 46.847656 -57.601562 50.558594 -52.992188 50.558594 -45.441406 L 50.558594 0 L 65.921875 0 L 65.921875 -46.71875 C 65.921875 -61.054688 57.726562 -70.398438 45.183594 -70.398438 C 37.503906 -70.398438 31.742188 -66.945312 28.03125 -60.671875 L 27.519531 -60.671875 L 27.519531 -94.847656 L 12.160156 -94.847656 Z M 12.160156 0" transform="translate(60.5 104) scale(0.84)" />
  <style>
    .theor-mark__core { fill: #111111; }
    .theor-mark__site { fill: #3A4E68; }
    @media (prefers-color-scheme: dark) {
      .theor-mark__site { fill: #6F88A8; }
    }
    @media (prefers-color-scheme: dark) {
      .theor-mark__core { fill: #FFFFFF; }
    }
  </style>
</svg>
