<svg xmlns="http://www.w3.org/2000/svg" viewBox="0 0 128 128" fill="none" aria-label="cue.theor.net">
  <path class="theor-mark__core" d="M 30.464844 0 L 46.464844 0 L 46.464844 -75.519531 L 71.679688 -75.519531 L 71.679688 -89.601562 L 5.121094 -89.601562 L 5.121094 -75.519531 L 30.464844 -75.519531 Z M 30.464844 0" transform="translate(3 104) scale(0.84)" />
  <path class="theor-mark__site" d="M 52.609375 -19.199219 C 51.199219 -15.230469 46.976562 -12.800781 41.472656 -12.800781 C 30.847656 -12.800781 24.191406 -21.632812 24.191406 -35.070312 C 24.191406 -48 30.464844 -56.320312 40.574219 -56.320312 C 46.078125 -56.320312 50.304688 -53.886719 51.96875 -49.921875 L 67.328125 -49.921875 C 65.40625 -62.078125 54.398438 -70.398438 40.574219 -70.398438 C 22.144531 -70.398438 8.832031 -55.550781 8.832031 -34.945312 C 8.832031 -14.207031 22.398438 1.28125 40.832031 1.28125 C 54.398438 1.28125 65.664062 -7.039062 68.222656 -19.199219 Z M 52.609375 -19.199219" transform="translate(60.5 104) scale(0.84)" />
  <style>
    .theor-mark__core { fill: #111111; }
    .theor-mark__site { fill: #7A5567; }
    @media (prefers-color-scheme: dark) {
      .theor-mark__site { fill: #A27A8F; }
    }
    @media (prefers-color-scheme: dark) {
      .theor-mark__core { fill: #FFFFFF; }
    }
  </style>
</svg>
