<svg xmlns="http://www.w3.org/2000/svg" viewBox="0 0 128 128" fill="none" aria-label="graph.theor.net">
  <path class="theor-mark__core" d="M 30.464844 0 L 46.464844 0 L 46.464844 -75.519531 L 71.679688 -75.519531 L 71.679688 -89.601562 L 5.121094 -89.601562 L 5.121094 -75.519531 L 30.464844 -75.519531 Z M 30.464844 0" transform="translate(3 104) scale(0.84)" />
  <path class="theor-mark__site" d="M 11.777344 -46.335938 C 11.777344 -39.808594 14.078125 -34.175781 18.046875 -29.953125 C 14.335938 -27.390625 12.160156 -23.550781 12.160156 -18.816406 C 12.160156 -14.59375 13.953125 -10.878906 16.894531 -8.320312 L 16.894531 -7.808594 C 10.878906 -4.863281 7.296875 0.128906 7.296875 6.527344 C 7.296875 18.433594 19.96875 26.878906 37.761719 26.878906 C 57.214844 26.878906 70.65625 17.152344 70.65625 3.199219 C 70.65625 -8.320312 61.441406 -15.617188 47.105469 -15.617188 L 29.441406 -15.617188 C 26.753906 -15.617188 24.960938 -17.40625 24.960938 -19.96875 C 24.960938 -21.632812 25.726562 -23.039062 27.007812 -24.191406 C 30.078125 -22.910156 33.535156 -22.273438 37.375 -22.273438 C 52.222656 -22.273438 62.976562 -32.382812 62.976562 -46.335938 C 62.976562 -49.664062 62.335938 -52.863281 61.183594 -55.679688 L 61.183594 -56.320312 L 70.015625 -56.320312 L 70.015625 -69.121094 L 46.078125 -69.121094 C 43.390625 -70.015625 40.449219 -70.398438 37.375 -70.398438 C 22.527344 -70.398438 11.777344 -60.289062 11.777344 -46.335938 Z M 29.441406 -1.535156 L 45.183594 -1.535156 C 51.585938 -1.535156 55.296875 0.769531 55.296875 4.734375 C 55.296875 10.238281 48.382812 14.078125 38.015625 14.078125 C 28.03125 14.078125 21.375 10.496094 21.375 5.121094 C 21.375 1.28125 24.703125 -1.535156 29.441406 -1.535156 Z M 37.375 -35.070312 C 30.847656 -35.070312 26.496094 -39.550781 26.496094 -46.078125 C 26.496094 -52.609375 30.847656 -57.089844 37.375 -57.089844 C 43.902344 -57.089844 48.257812 -52.609375 48.257812 -46.078125 C 48.257812 -39.550781 43.902344 -35.070312 37.375 -35.070312 Z M 37.375 -35.070312" transform="translate(59.5 96) scale(0.8)" />
  <style>
    .theor-mark__core { fill: #111111; }
    .theor-mark__site { fill: #46637D; }
    @media (prefers-color-scheme: dark) {
      .theor-mark__site { fill: #7A95A2; }
    }
    @media (prefers-color-scheme: dark) {
      .theor-mark__core { fill: #FFFFFF; }
    }
  </style>
</svg>
