<svg xmlns="http://www.w3.org/2000/svg" viewBox="0 0 128 128" fill="none" aria-label="schedule.theor.net">
  <path class="theor-mark__core" d="M 30.464844 0 L 46.464844 0 L 46.464844 -75.519531 L 71.679688 -75.519531 L 71.679688 -89.601562 L 5.121094 -89.601562 L 5.121094 -75.519531 L 30.464844 -75.519531 Z M 30.464844 0" transform="translate(3 104) scale(0.84)" />
  <path class="theor-mark__site" d="M 11.136719 -19.199219 C 11.136719 -7.167969 22.785156 1.792969 38.398438 1.792969 C 54.527344 1.792969 65.664062 -7.808594 65.664062 -21.632812 C 65.664062 -33.28125 57.726562 -39.679688 40.960938 -41.601562 L 37.503906 -41.984375 C 31.105469 -42.753906 28.289062 -45.054688 28.289062 -49.28125 C 28.289062 -54.398438 32.382812 -57.601562 38.910156 -57.601562 C 45.3125 -57.601562 50.046875 -54.527344 50.558594 -49.921875 L 64.894531 -49.921875 C 64.382812 -61.695312 53.246094 -70.398438 38.65625 -70.398438 C 23.425781 -70.398438 13.183594 -61.054688 13.183594 -47.359375 C 13.183594 -35.710938 20.734375 -29.3125 36.480469 -27.519531 L 39.9375 -27.136719 C 47.230469 -26.367188 50.304688 -24.191406 50.304688 -19.710938 C 50.304688 -14.464844 45.953125 -11.136719 39.296875 -11.136719 C 32.511719 -11.136719 26.753906 -14.59375 25.984375 -19.199219 Z M 11.136719 -19.199219" transform="translate(59.5 104) scale(0.84)" />
  <style>
    .theor-mark__core { fill: #111111; }
    .theor-mark__site { fill: #5E7850; }
    @media (prefers-color-scheme: dark) {
      .theor-mark__site { fill: #8FA27A; }
    }
    @media (prefers-color-scheme: dark) {
      .theor-mark__core { fill: #FFFFFF; }
    }
  </style>
</svg>
