<svg xmlns="http://www.w3.org/2000/svg" viewBox="0 0 64 64" role="img" aria-label="theornet @ glyph">
  <rect class="bg" x="4" y="4" width="56" height="56" rx="13" />
  <g class="glyph">
    <rect x="20" y="12" width="24" height="6" rx="1" />
    <rect x="14" y="18" width="6" height="6" rx="1" />
    <rect x="44" y="18" width="6" height="6" rx="1" />
    <rect x="10" y="24" width="6" height="18" rx="1" />
    <rect x="48" y="24" width="6" height="18" rx="1" />
    <rect x="22" y="24" width="18" height="6" rx="1" />
    <rect x="22" y="30" width="6" height="12" rx="1" />
    <rect x="34" y="30" width="6" height="12" rx="1" />
    <rect x="40" y="36" width="10" height="6" rx="1" />
    <rect x="16" y="42" width="6" height="6" rx="1" />
    <rect x="44" y="42" width="6" height="6" rx="1" />
    <rect x="22" y="48" width="28" height="6" rx="1" />
  </g>
  <style>
    .bg { fill: #111111; }
    .glyph { fill: #f7f3ea; }
    @media (prefers-color-scheme: dark) {
      .bg { fill: #f7f3ea; }
      .glyph { fill: #111111; }
    }
  </style>
</svg>
