<svg width="256" height="256" viewBox="250 250 760 760" fill="none" xmlns="http://www.w3.org/2000/svg">
  <defs>
    <linearGradient id="faviconBg" x1="238" y1="262" x2="1000" y2="1000" gradientUnits="userSpaceOnUse">
      <stop offset="0" stop-color="#3F9BDA"/>
      <stop offset="0.34" stop-color="#EA7540"/>
      <stop offset="0.66" stop-color="#E7B34F"/>
      <stop offset="1" stop-color="#8B6EDC"/>
    </linearGradient>
    <radialGradient id="faviconGlow" cx="0" cy="0" r="1" gradientTransform="matrix(420 0 0 420 800 360)" gradientUnits="userSpaceOnUse">
      <stop stop-color="#F6F1DF" stop-opacity="0.5"/>
      <stop offset="1" stop-color="#F6F1DF" stop-opacity="0"/>
    </radialGradient>
    <clipPath id="faviconClip">
      <rect x="250" y="250" width="760" height="760" rx="152"/>
    </clipPath>
  </defs>
  <g clip-path="url(#faviconClip)">
    <rect x="250" y="250" width="760" height="760" fill="url(#faviconBg)"/>
    <path d="M250 738C398 660 552 664 716 724C842 770 930 752 1010 690V1010H250V738Z" fill="#5F9E6C" opacity="0.88"/>
    <path d="M250 823C388 768 520 778 668 835C818 892 920 868 1010 792V1010H250V823Z" fill="#222221" opacity="0.24"/>
    <circle cx="795" cy="390" r="160" fill="url(#faviconGlow)"/>
  </g>
  <path d="M590.663 334.623L689.422 334.562C710.591 334.555 733.878 333.592 754.584 335.379C850.332 343.64 918.522 429.694 916.168 523.411C914.362 595.3 886.138 677.522 834.871 728.531C810.635 753.123 780.247 770.765 746.873 779.617C721.729 786.2 702.847 785.399 677.255 785.394L628.693 785.367L495.067 785.353C491.391 799.896 486.667 815.375 482.513 829.856L456.638 919.136C451.052 919.692 441.153 919.414 435.274 919.416L396.999 919.407C404.644 891.754 411.76 862.007 418.64 834.112C427.869 797.987 436.28 762.251 445 726H516H644.5C663.443 726.029 682.395 725.76 701.5 726C799.889 727.234 849.117 623.617 856.995 539.088C860.847 497.763 848.655 455.69 819.345 426.547C804.559 411.707 785.82 401.43 765.359 396.938C750.819 393.642 736.832 394.326 722.037 394.35L681.443 394.358L535.904 394.418C532.844 407.365 528.432 422.169 526 435H467C474.16 402.486 481.866 367.458 489.648 334.822C500.738 334.357 513.681 334.678 524.979 334.668L590.663 334.623Z" fill="#FFF7E8"/>
  <path d="M429 461H344L467 581C455.485 590.744 439.851 606.905 428.524 617.894L344 701H395.5C405.522 700.995 419 701 429 701L507.958 624.872C522.45 610.747 552 581 552 581L490.5 521L429 461Z" fill="#FFF7E8"/>
  <path d="M599 461H514L637 581C625.485 590.744 609.851 606.905 598.524 617.894L514 701H565.5C575.522 700.995 589 701 599 701L677.958 624.872C692.45 610.747 722 581 722 581L660.5 521L599 461Z" fill="#FFF7E8"/>
</svg>
